<svg xmlns="http://www.w3.org/2000/svg"><path fill-rule="evenodd" d="M19.6337 17.8554c.2347.2356.3662.5551.3662.8883 0 .3332-.1315.6529-.3662.8885a1.2506 1.2506 0 0 1-.8855.3679c-.3319 0-.65-.1324-.8848-.3679l-3.7133-3.7397a1.8826 1.8826 0 0 1-.136-.1989 8.48 8.48 0 0 1-5.199 1.8015 8.6938 8.6938 0 0 1-5.4358-1.8307A8.7507 8.7507 0 0 1 .2528 10.84a8.7782 8.7782 0 0 1 .5367-5.73A8.7339 8.7339 0 0 1 4.7567.9545a8.6845 8.6845 0 0 1 5.68-.7822 8.7094 8.7094 0 0 1 4.9355 2.9297 8.7677 8.7677 0 0 1 2.0543 5.3734 8.7707 8.7707 0 0 1-1.7171 5.4912c.0749.0425.1459.0924.2109.1491l3.7134 3.7396zM8.8273 2.4992a6.2089 6.2089 0 0 0-3.4656 1.0412 6.2437 6.2437 0 0 0-2.304 2.7994 6.2713 6.2713 0 0 0-.3643 3.6127 6.2567 6.2567 0 0 0 1.6983 3.2061 6.2194 6.2194 0 0 0 3.1875 1.7173 6.2043 6.2043 0 0 0 3.6003-.3514 6.2318 6.2318 0 0 0 2.7983-2.3015 6.265 6.265 0 0 0 1.0511-3.4744 6.2528 6.2528 0 0 0-1.8126-4.4127 6.2058 6.2058 0 0 0-4.389-1.8367z" fill="#fff"></path></svg>