<svg width="191" height="22" viewBox="0 0 191 22" fill="#fff" 
	xmlns="http://www.w3.org/2000/svg">
	<path d="M40.6548 14.0891a5.911 5.911 0 0 0 2.4152-.3267 6.0005 6.0005 0 0 0 2.0911-1.2763 6.0345 6.0345 0 0 0 1.2819-2.1308 6.1302 6.1302 0 0 0 .322-2.479 5.8455 5.8455 0 0 0-.3576-2.4325 5.7473 5.7473 0 0 0-1.3227-2.0558 6.2284 6.2284 0 0 0-2.1303-1.3074 6.1325 6.1325 0 0 0-2.4608-.3563H33V20.215h4.693v-6.126h2.9618v.0001zm-2.9618-8.483h1.604a2.688 2.688 0 0 1 1.0712.1276c.3453.1145.6648.298.94.5396.195.2262.3433.49.4366.7757.0933.2857.1297.5877.1067.888a2.1425 2.1425 0 0 1-.1154.914c-.1036.2911-.27.556-.4873.7756-.5732.4218-1.2721.6271-1.9772.5806H37.693V5.6061zm11.1598 2.2183V20.215h4.345V7.8244h-4.345zm-.2716-5.1557c0 .4936.1434.9761.4119 1.3865a2.456 2.456 0 0 0 1.0969.919c.4456.1888.938.2383 1.4122.1421a2.4289 2.4289 0 0 0 1.2514-.683 2.512 2.512 0 0 0 .6688-1.2777 2.544 2.544 0 0 0-.139-1.4418A2.4853 2.4853 0 0 0 52.3832.594a2.4091 2.4091 0 0 0-1.358-.4206 2.3907 2.3907 0 0 0-.9369.1872 2.4312 2.4312 0 0 0-.7943.5407 2.4866 2.4866 0 0 0-.5294.811 2.5307 2.5307 0 0 0-.1834.9565v-.0001zm6.0848 17.5464h5.7623l3.089-3.6826 3.0977 3.6826h5.7624l-6.085-6.7325 5.0241-5.6582h-5.6266l-2.1386 2.5474-2.0961-2.5474h-5.6435l4.9137 5.6582-6.0594 6.7325zm31.0436-5.8488a7.0805 7.0805 0 0 0-.4301-2.8094 6.9666 6.9666 0 0 0-1.4964-2.3982c-1.2865-1.1594-2.9614-1.7676-4.676-1.6983a6.7022 6.7022 0 0 0-2.6593.3929 6.8066 6.8066 0 0 0-2.3054 1.4095 6.6435 6.6435 0 0 0-1.3878 2.2117 6.7499 6.7499 0 0 0-.4367 2.5885 6.6504 6.6504 0 0 0 .4351 2.5272 6.548 6.548 0 0 0 1.3554 2.1606 6.8685 6.8685 0 0 0 2.3259 1.4586 6.76 6.76 0 0 0 2.6983.4217c2.6393 0 4.0479-.8319 4.9474-1.7158.7053-.6986 1.2127-1.5787 1.4684-2.5474h-4.1585a2.1225 2.1225 0 0 1-.7637.8318 3.3594 3.3594 0 0 1-1.4089.3293 2.393 2.393 0 0 1-.9549-.1194 2.4297 2.4297 0 0 1-.8356-.4871c-.4941-.5751-.7658-1.3146-.7639-2.0796h9.0467v-.4766zm-8.9108-2.0795c.0827-.4966.31-.9577.6535-1.3257a2.3104 2.3104 0 0 1 .8132-.5249 2.2726 2.2726 0 0 1 .9518-.1423c.6598-.0278 1.3036.2121 1.7907.6672.3475.369.591.8271.7045 1.3257h-4.9137zM88.2046 0v20.2151h4.3451V0h-4.3451zm7.3069 0v20.2151h4.345v-1.3517a4.4778 4.4778 0 0 0 1.625 1.3339 4.381 4.381 0 0 0 2.0412.4338 5.728 5.728 0 0 0 2.3064-.4116 5.8228 5.8228 0 0 0 1.9623-1.3042 6.8462 6.8462 0 0 0 1.4665-2.2673 6.9603 6.9603 0 0 0 .4855-2.6716 6.8513 6.8513 0 0 0-.4994-2.6606 6.7344 6.7344 0 0 0-1.4866-2.2437c-1.1676-1.0938-2.7013-1.689-4.2857-1.6636a4.6947 4.6947 0 0 0-1.978.4072 4.7835 4.7835 0 0 0-1.6372 1.2044V0h-4.345zm7.0099 16.8618c-.74-.0045-1.4485-.306-1.9725-.8394-.524-.5334-.8215-1.2558-.8281-2.0113.0415-.7422.3287-1.448.8146-2.0016.5181-.5281 1.2189-.8268 1.9509-.8317.7321-.0049 1.4365.2845 1.9613.8057.5339.566.8348 1.3197.8404 2.1056-.0194.7345-.3214 1.4318-.8404 1.9409a2.6844 2.6844 0 0 1-.8806.615 2.6397 2.6397 0 0 1-1.0456.2168zm9.7169-9.0374v7.7376a4.56 4.56 0 0 0 .2433 1.7699 4.4919 4.4919 0 0 0 .9023 1.5315c1.4342 1.577 3.6663 1.7677 5.4824 1.7677 1.6549 0 3.751-.1647 5.2446-1.7417a4.267 4.267 0 0 0 .9357-1.5346 4.337 4.337 0 0 0 .2269-1.7928V7.8244h-4.345v6.9319a2.344 2.344 0 0 1-.1287.942 2.3084 2.3084 0 0 1-.4908.8083 2.0447 2.0447 0 0 1-.7237.4245 2.0163 2.0163 0 0 1-.8294.0954c-.5455.0401-1.0864-.1266-1.5191-.468a2.3897 2.3897 0 0 1-.5124-.8309 2.4305 2.4305 0 0 1-.1411-.9713v-6.932h-4.345v.0001zM142.009 0h-4.354v9.0201a4.7658 4.7658 0 0 0-1.632-1.2044 4.6745 4.6745 0 0 0-1.974-.4072c-1.587-.0236-3.1228.5713-4.2947 1.6636a6.769 6.769 0 0 0-1.4795 2.2458 6.8842 6.8842 0 0 0-.4977 2.6585c-.015.9148.15 1.8232.4853 2.6716a6.8462 6.8462 0 0 0 1.4665 2.2673 5.805 5.805 0 0 0 1.9577 1.3041 5.7085 5.7085 0 0 0 2.3024.4117 4.3712 4.3712 0 0 0 2.042-.4327 4.4684 4.4684 0 0 0 1.624-1.335v1.3517h4.354V0zm-7.01 16.8618a2.618 2.618 0 0 1-1.047-.2145c-.331-.143-.63-.353-.879-.6173a2.7692 2.7692 0 0 1-.6142-.8842 2.8218 2.8218 0 0 1-.2348-1.0567c.0043-.7878.3087-1.543.849-2.1056.523-.5211 1.226-.8106 1.957-.8057.731.0049 1.43.3037 1.946.8317.49.5515.777 1.2585.815 2.0016a3.0167 3.0167 0 0 1-.251 1.147 2.9713 2.9713 0 0 1-.665.9585c-.522.4627-1.185.726-1.876.7452zM158.736 0h-4.345v9.0201a4.8109 4.8109 0 0 0-1.638-1.2031 4.7106 4.7106 0 0 0-1.978-.4085c-1.586-.0236-3.122.5713-4.294 1.6636a6.7615 6.7615 0 0 0-1.479 2.2458 6.8864 6.8864 0 0 0-.498 2.6585c-.015.9148.15 1.8232.485 2.6716a6.8365 6.8365 0 0 0 1.467 2.2673 5.8186 5.8186 0 0 0 1.962 1.3042 5.7277 5.7277 0 0 0 2.306.4116 4.3847 4.3847 0 0 0 2.042-.4338 4.482 4.482 0 0 0 1.625-1.3339v1.3517h4.345V0zm-7.01 16.8618a2.6144 2.6144 0 0 1-1.047-.2145c-.331-.143-.63-.353-.879-.6173-.519-.5091-.821-1.2064-.841-1.9409.002-.7866.304-1.5416.841-2.1056.524-.5212 1.229-.8106 1.961-.8057.732.0049 1.433.3036 1.951.8317.486.5536.773 1.2594.814 2.0016a3.0215 3.0215 0 0 1-.255 1.1476 2.9776 2.9776 0 0 1-.67.9579c-.521.4627-1.184.726-1.875.7452zm9.997 3.3533h4.345v-6.6546a2.7179 2.7179 0 0 1 .157-1.0877c.126-.3476.321-.6647.573-.9313.445-.3668 1.007-.5548 1.578-.5285.255-.0233.512.0122.751.1037.239.0914.456.2366.633.4248.445.7162.636 1.5662.543 2.4089v6.2647h4.345v-7.8677c.07-.6275.005-1.263-.192-1.8619a4.332 4.332 0 0 0-.945-1.604 4.8395 4.8395 0 0 0-1.661-1.043 4.7606 4.7606 0 0 0-1.929-.2915 4.8293 4.8293 0 0 0-2.495.6067c-.519.3269-.9782.74-1.358 1.2216V0h-4.345v20.2151zm24.28-11.195a4.8005 4.8005 0 0 0-1.65-1.2085 4.7084 4.7084 0 0 0-1.991-.4031c-1.625-.022-3.193.6062-4.37 1.7502a6.83 6.83 0 0 0-1.43 2.284 6.9547 6.9547 0 0 0-.446 2.6724c-.025.8388.116 1.674.415 2.4557.299.7817.75 1.4937 1.325 2.0933a5.7765 5.7765 0 0 0 1.976 1.4668 5.6745 5.6745 0 0 0 2.394.5002 4.4573 4.4573 0 0 0 2.098-.4168 4.553 4.553 0 0 0 1.679-1.3509v1.3517h4.345V7.8244h-4.345v1.1957zm-2.665 2.1576c.729-.005 1.431.2846 1.952.8058.271.2599.486.5742.632.9231.146.349.22.7251.216 1.1045.005.3714-.064.7399-.204 1.0827a2.7327 2.7327 0 0 1-.61.9102c-.517.5387-1.222.847-1.96.8578-.727-.0312-1.419-.3261-1.952-.8318a2.8462 2.8462 0 0 1-.618-.9237 2.8953 2.8953 0 0 1-.222-1.0952c.015-.7659.326-1.4945.865-2.0276.511-.5053 1.19-.7933 1.901-.8058z"></path><path class="logo-pic" d="M14.0829 8.92H6.1613V1h7.9216v7.92zm5.6822.1893c-1.1086 1.725-2.633 3.13-4.4269 4.0799-1.7938.9499-3.7968 1.4129-5.8164 1.3443-1.8296.0066-3.6368-.4102-5.286-1.2191C2.5866 12.5055 1.1384 11.3255 0 9.8631c.891 4.6531 5.5078 11.377 13.6208 11.377 2.3895-.0041 4.7369-.6419 6.8122-1.851 2.0754-1.2091 3.8074-2.9479 5.0264-5.0462l-5.6943-5.2336z" fill="#fff"/>
</svg>